<?xml version="1.0" encoding="UTF-8" standalone="no"?>
<svg
   width="1800"
   height="500"
   viewBox="0 0 1800 500"
   version="1.1"
   id="svg41"
   xmlns="http://www.w3.org/2000/svg"
   xmlns:svg="http://www.w3.org/2000/svg">
  <title
     id="title2">TraceYield</title>
  <defs
     id="defs13">
    <linearGradient
       id="gradient"
       x1="300"
       y1="280"
       x2="900"
       y2="985"
       gradientUnits="userSpaceOnUse">
      <stop
         offset="0"
         stop-color="#05b98a"
         id="stop4" />
      <stop
         offset="0.46"
         stop-color="#10b7d8"
         id="stop6" />
      <stop
         offset="0.72"
         stop-color="#258cf8"
         id="stop8" />
      <stop
         offset="1"
         stop-color="#7338ff"
         id="stop10" />
    </linearGradient>
  </defs>
  <g
     transform="translate(18 -2) scale(.4)"
     id="g25">
    <path
       d="M627 228 L952 424 L952 806 L627 1002 L301 806 L301 424 Z"
       fill="none"
       stroke="url(#gradient)"
       stroke-width="70"
       stroke-linecap="round"
       stroke-linejoin="round"
       id="path15" />
    <g
       fill="url(#gradient)"
       id="g23">
      <path
         id="rect17"
         d="m 470.5,603 c 21.329,0 38.5,17.171 38.5,38.5 v 88 C 509,750.829 491.829,768 470.5,768 449.171,768 432,750.829 432,729.5 v -88 c 0,-21.329 17.171,-38.5 38.5,-38.5 z" />
      <path
         id="rect19"
         d="m 625.5,452 c 21.329,0 38.5,17.171 38.5,38.5 v 239 C 664,750.829 646.829,768 625.5,768 604.171,768 587,750.829 587,729.5 v -239 c 0,-21.329 17.171,-38.5 38.5,-38.5 z" />
      <path
         id="rect21"
         d="m 779.5,571 c 21.329,0 38.5,17.171 38.5,38.5 v 120 C 818,750.829 800.829,768 779.5,768 758.171,768 741,750.829 741,729.5 v -120 c 0,-21.329 17.171,-38.5 38.5,-38.5 z" />
    </g>
  </g>
  <g
     aria-label="TraceYield"
     id="text31"
     style="font-weight:700;font-size:190px;font-family:Poppins, sans-serif;letter-spacing:-6">
    <path
       d="m 455.92773,165.48926 h 127.65625 v 26.99707 H 537.66113 V 304 H 501.94336 V 192.48633 h -46.01563 z"
       style="fill:#f8fafc"
       id="path48" />
    <path
       d="m 650.875,228.38965 q -4.36035,-2.04102 -8.7207,-2.96875 -4.26758,-1.02051 -8.62793,-1.02051 -12.80274,0 -19.76075,8.25684 -6.86523,8.16406 -6.86523,23.47168 V 304 H 573.6875 V 200.09375 h 33.21289 v 17.07031 q 6.40137,-10.20508 14.6582,-14.84375 8.34961,-4.73144 19.94629,-4.73144 1.66992,0 3.61817,0.18554 1.94824,0.0928 5.65918,0.55664 z"
       style="fill:#f8fafc"
       id="path50" />
    <path
       d="m 707.96094,257.24219 q -10.39063,0 -15.67871,3.52539 -5.19532,3.52539 -5.19532,10.39062 0,6.3086 4.17481,9.92676 4.26758,3.52539 11.78223,3.52539 9.37011,0 15.77148,-6.67969 6.40137,-6.77246 6.40137,-16.88476 v -3.80371 z m 50.74707,-12.52442 V 304 H 725.2168 v -15.40039 q -6.67969,9.46289 -15.0293,13.82324 -8.34961,4.26758 -20.31738,4.26758 -16.14258,0 -26.25489,-9.37012 -10.01953,-9.46289 -10.01953,-24.49219 0,-18.27636 12.52442,-26.81152 12.61718,-8.53515 39.52148,-8.53515 h 19.5752 v -2.59766 q 0,-7.88574 -6.21582,-11.50391 -6.21582,-3.71093 -19.38965,-3.71093 -10.66895,0 -19.85352,2.13378 -9.18457,2.13379 -17.07031,6.40137 v -25.32715 q 10.66895,-2.59765 21.43066,-3.89648 10.76172,-1.3916 21.52344,-1.3916 28.11035,0 40.54199,11.13281 12.52442,11.04004 12.52442,35.99609 z"
       style="fill:#f8fafc"
       id="path52" />
    <path
       d="m 867.56152,203.34082 v 27.08984 q -6.77246,-4.63867 -13.63769,-6.86523 -6.77246,-2.22656 -14.10156,-2.22656 -13.91602,0 -21.70899,8.16406 -7.70019,8.07129 -7.70019,22.63672 0,14.56543 7.70019,22.72949 7.79297,8.07129 21.70899,8.07129 7.79296,0 14.75097,-2.31934 7.05078,-2.31933 12.98828,-6.86523 v 27.18262 q -7.79297,2.87597 -15.86425,4.26757 -7.97852,1.48438 -16.04981,1.48438 -28.11035,0 -43.97461,-14.37988 -15.86426,-14.47266 -15.86426,-40.1709 0,-25.69824 15.86426,-40.07813 15.86426,-14.47265 43.97461,-14.47265 8.16406,0 16.04981,1.48437 7.97851,1.3916 15.86425,4.26758 z"
       style="fill:#f8fafc"
       id="path54" />
    <path
       d="m 993.94922,251.76855 v 9.4629 h -77.65137 q 1.20606,11.68945 8.44238,17.53417 7.23633,5.84473 20.22461,5.84473 10.4834,0 21.43067,-3.06152 11.04004,-3.1543 22.63672,-9.46289 v 25.60547 q -11.78223,4.45312 -23.56446,6.67968 -11.78222,2.31934 -23.56445,2.31934 -28.20312,0 -43.88184,-14.28711 -15.58593,-14.37988 -15.58593,-40.26367 0,-25.41992 15.30761,-39.98535 15.40039,-14.56543 42.30469,-14.56543 24.49219,0 39.15039,14.75097 14.75098,14.75098 14.75098,39.42871 z m -34.14063,-11.04003 q 0,-9.4629 -5.5664,-15.21485 -5.47364,-5.84472 -14.37989,-5.84472 -9.64843,0 -15.67871,5.47363 -6.03027,5.38086 -7.51464,15.58594 z"
       style="fill:#f8fafc"
       id="path56" />
    <path
       d="m 995.27832,165.48926 h 39.05758 l 31.543,49.35547 31.543,-49.35547 h 39.1504 l -52.7881,80.15625 V 304 h -35.7178 v -58.35449 z"
       style="fill:#12c99a"
       id="path58" />
    <path
       d="m 1144.6738,200.09375 h 33.2129 V 304 h -33.2129 z m 0,-40.44922 h 33.2129 v 27.08984 h -33.2129 z"
       style="fill:#12c99a"
       id="path60" />
    <path
       d="m 1307.5215,251.76855 v 9.4629 h -77.6514 q 1.2061,11.68945 8.4424,17.53417 7.2363,5.84473 20.2246,5.84473 10.4834,0 21.4307,-3.06152 11.04,-3.1543 22.6367,-9.46289 v 25.60547 q -11.7822,4.45312 -23.5645,6.67968 -11.7822,2.31934 -23.5644,2.31934 -28.2031,0 -43.8818,-14.28711 -15.586,-14.37988 -15.586,-40.26367 0,-25.41992 15.3076,-39.98535 15.4004,-14.56543 42.3047,-14.56543 24.4922,0 39.1504,14.75097 14.751,14.75098 14.751,39.42871 z m -34.1406,-11.04003 q 0,-9.4629 -5.5664,-15.21485 -5.4737,-5.84472 -14.3799,-5.84472 -9.6485,0 -15.6787,5.47363 -6.0303,5.38086 -7.5147,15.58594 z"
       style="fill:#12c99a"
       id="path62" />
    <path
       d="m 1326.6631,159.64453 h 33.2129 V 304 h -33.2129 z"
       style="fill:#12c99a"
       id="path64" />
    <path
       d="m 1456.4834,215.30859 v -55.66406 h 33.3984 V 304 h -33.3984 v -15.0293 q -6.8652,9.18457 -15.1221,13.45215 -8.2568,4.26758 -19.1113,4.26758 -19.2041,0 -31.543,-15.21484 -12.3388,-15.30762 -12.3388,-39.33594 0,-24.02832 12.3388,-39.24317 12.3389,-15.30761 31.543,-15.30761 10.7617,0 19.0186,4.36035 8.3496,4.26758 15.2148,13.35937 z m -21.8945,67.26075 q 10.6689,0 16.2353,-7.79297 5.6592,-7.79297 5.6592,-22.63672 0,-14.84375 -5.6592,-22.63672 -5.5664,-7.79297 -16.2353,-7.79297 -10.5762,0 -16.2354,7.79297 -5.5664,7.79297 -5.5664,22.63672 0,14.84375 5.5664,22.63672 5.6592,7.79297 16.2354,7.79297 z"
       style="fill:#12c99a"
       id="path66" />
  </g>
  <g
     aria-label="MEASURE.UNDERSTAND.IMPROVE."
     id="text39"
     style="font-size:46px;font-family:Poppins, sans-serif;letter-spacing:8.45">
    <path
       d="m 455.91464,348.46582 h 6.76074 l 8.55762,22.82031 8.60254,-22.82031 h 6.76074 V 382 h -4.4248 v -29.44629 l -8.64746,23 h -4.55957 l -8.64746,-23 V 382 h -4.40235 z"
       style="fill:#05b98a"
       id="path69" />
    <path
       d="m 504.05312,348.46582 h 21.20312 v 3.81836 h -16.66601 v 9.92773 h 15.96973 v 3.81836 h -15.96973 v 12.15137 h 17.07031 V 382 h -21.60742 z"
       style="fill:#05b98a"
       id="path71" />
    <path
       d="m 552.77558,352.93555 -6.1543,16.68847 h 12.33106 z m -2.56055,-4.46973 h 5.14356 L 568.13886,382 h -4.71679 l -3.05469,-8.60254 H 545.25117 L 542.19648,382 h -4.78418 z"
       style="fill:#05b98a"
       id="path73" />
    <path
       d="m 601.58788,349.56641 v 4.4248 q -2.583,-1.23535 -4.87402,-1.8418 -2.29102,-0.60644 -4.42481,-0.60644 -3.70605,0 -5.72753,1.4375 -1.99903,1.4375 -1.99903,4.08789 0,2.22363 1.3252,3.36914 1.34765,1.12305 5.07617,1.81934 l 2.74023,0.56152 q 5.07618,0.96582 7.4795,3.41406 2.42578,2.42578 2.42578,6.51367 0,4.87403 -3.2793,7.38965 -3.25684,2.51563 -9.56836,2.51563 -2.38086,0 -5.07617,-0.53907 -2.67285,-0.53906 -5.54785,-1.59472 v -4.67188 q 2.76269,1.54981 5.41308,2.33594 2.65039,0.78613 5.21094,0.78613 3.88574,0 5.99707,-1.52734 2.11133,-1.52734 2.11133,-4.35742 0,-2.47071 -1.52734,-3.86328 -1.50489,-1.39258 -4.96387,-2.08887 l -2.7627,-0.53906 q -5.07617,-1.01075 -7.34472,-3.167 -2.26856,-2.15625 -2.26856,-5.99707 0,-4.44726 3.12207,-7.00781 3.14453,-2.56055 8.64746,-2.56055 2.3584,0 4.80664,0.42676 2.44825,0.42676 5.00879,1.28028 z"
       style="fill:#05b98a"
       id="path75" />
    <path
       d="m 618.61797,348.46582 h 4.55957 v 20.37207 q 0,5.39063 1.9541,7.77148 1.9541,2.3584 6.33398,2.3584 4.35742,0 6.31153,-2.3584 1.9541,-2.38085 1.9541,-7.77148 v -20.37207 h 4.55957 v 20.93359 q 0,6.5586 -3.25684,9.90528 -3.23437,3.34668 -9.56836,3.34668 -6.35644,0 -9.61328,-3.34668 -3.23437,-3.34668 -3.23437,-9.90528 z"
       style="fill:#05b98a"
       id="path77" />
    <path
       d="m 677.15585,366.27734 q 1.45996,0.49414 2.83008,2.11133 1.39258,1.61719 2.78516,4.44727 L 687.37558,382 h -4.87402 l -4.29004,-8.60254 q -1.66211,-3.36914 -3.23438,-4.46973 -1.5498,-1.10058 -4.24511,-1.10058 h -4.94141 V 382 h -4.53711 v -33.53418 h 10.24219 q 5.75,0 8.58008,2.40332 2.83007,2.40332 2.83007,7.25488 0,3.167 -1.48242,5.25586 -1.45996,2.08887 -4.26758,2.89746 z m -11.36523,-14.083 v 11.90429 h 5.70508 q 3.27929,0 4.9414,-1.50488 1.68457,-1.52734 1.68457,-4.46973 0,-2.94238 -1.68457,-4.4248 -1.66211,-1.50488 -4.9414,-1.50488 z"
       style="fill:#05b98a"
       id="path79" />
    <path
       d="m 701.66542,348.46582 h 21.20313 v 3.81836 h -16.66602 v 9.92773 h 15.96973 v 3.81836 h -15.96973 v 12.15137 h 17.07031 V 382 h -21.60742 z"
       style="fill:#05b98a"
       id="path81" />
    <path
       d="m 739.58417,376.29492 h 4.73926 V 382 h -4.73926 z"
       style="fill:#05b98a"
       id="path83" />
    <path
       d="m 773.73535,348.46582 h 4.55957 v 20.37207 q 0,5.39063 1.9541,7.77148 1.9541,2.3584 6.33399,2.3584 4.35742,0 6.31152,-2.3584 1.9541,-2.38085 1.9541,-7.77148 v -20.37207 h 4.55957 v 20.93359 q 0,6.5586 -3.25683,9.90528 -3.23438,3.34668 -9.56836,3.34668 -6.35645,0 -9.61328,-3.34668 -3.23438,-3.34668 -3.23438,-9.90528 z"
       style="fill:#258cf8"
       id="path85" />
    <path
       d="m 816.37088,348.46582 h 6.10938 l 14.86914,28.05371 v -28.05371 h 4.40234 V 382 h -6.10938 L 820.77322,353.94629 V 382 h -4.40234 z"
       style="fill:#258cf8"
       id="path87" />
    <path
       d="m 863.76816,352.19434 v 26.07714 h 5.48047 q 6.94043,0 10.15234,-3.14453 3.23438,-3.14453 3.23438,-9.92773 0,-6.73828 -3.23438,-9.86035 -3.21191,-3.14453 -10.15234,-3.14453 z m -4.53711,-3.72852 h 9.32129 q 9.74804,0 14.30761,4.06543 4.55958,4.04297 4.55958,12.66797 0,8.66992 -4.58204,12.73535 Q 878.25546,382 868.55234,382 h -9.32129 z"
       style="fill:#258cf8"
       id="path89" />
    <path
       d="m 903.10196,348.46582 h 21.20312 v 3.81836 h -16.66601 v 9.92773 h 15.96973 v 3.81836 h -15.96973 v 12.15137 h 17.07031 V 382 h -21.60742 z"
       style="fill:#258cf8"
       id="path91" />
    <path
       d="m 956.51874,366.27734 q 1.45996,0.49414 2.83008,2.11133 1.39257,1.61719 2.78515,4.44727 L 966.73846,382 h -4.87402 l -4.29004,-8.60254 q -1.66211,-3.36914 -3.23437,-4.46973 -1.54981,-1.10058 -4.24512,-1.10058 H 945.1535 V 382 h -4.53711 v -33.53418 h 10.24219 q 5.75,0 8.58008,2.40332 2.83008,2.40332 2.83008,7.25488 0,3.167 -1.48242,5.25586 -1.45997,2.08887 -4.26758,2.89746 z m -11.36524,-14.083 v 11.90429 h 5.70508 q 3.2793,0 4.94141,-1.50488 1.68457,-1.52734 1.68457,-4.46973 0,-2.94238 -1.68457,-4.4248 -1.66211,-1.50488 -4.94141,-1.50488 z"
       style="fill:#258cf8"
       id="path93" />
    <path
       d="m 1001.1308,349.56641 v 4.4248 q -2.58298,-1.23535 -4.87399,-1.8418 -2.29102,-0.60644 -4.42481,-0.60644 -3.70605,0 -5.72754,1.4375 -1.99902,1.4375 -1.99902,4.08789 0,2.22363 1.32519,3.36914 1.34766,1.12305 5.07618,1.81934 l 2.74023,0.56152 q 5.07617,0.96582 7.47946,3.41406 2.4258,2.42578 2.4258,6.51367 0,4.87403 -3.27928,7.38965 -3.25684,2.51563 -9.56836,2.51563 -2.38086,0 -5.07617,-0.53907 -2.67286,-0.53906 -5.54786,-1.59472 v -4.67188 q 2.7627,1.54981 5.41309,2.33594 2.65039,0.78613 5.21094,0.78613 3.88574,0 5.99707,-1.52734 2.11133,-1.52734 2.11133,-4.35742 0,-2.47071 -1.52735,-3.86328 -1.50488,-1.39258 -4.96387,-2.08887 l -2.76269,-0.53906 q -5.07617,-1.01075 -7.34473,-3.167 -2.26855,-2.15625 -2.26855,-5.99707 0,-4.44726 3.12207,-7.00781 3.14453,-2.56055 8.64746,-2.56055 2.3584,0 4.80664,0.42676 2.44824,0.42676 5.00876,1.28028 z"
       style="fill:#258cf8"
       id="path95" />
    <path
       d="m 1014.0281,348.46582 h 28.3682 v 3.81836 H 1030.492 V 382 h -4.5596 v -29.71582 h -11.9043 z"
       style="fill:#258cf8"
       id="path97" />
    <path
       d="m 1062.8629,352.93555 -6.1543,16.68847 h 12.331 z m -2.5606,-4.46973 h 5.1436 L 1078.2262,382 h -4.7168 l -3.0547,-8.60254 h -15.1162 L 1052.2838,382 h -4.7842 z"
       style="fill:#258cf8"
       id="path99" />
    <path
       d="m 1091.5727,348.46582 h 6.1093 l 14.8692,28.05371 v -28.05371 h 4.4023 V 382 h -6.1094 L 1095.975,353.94629 V 382 h -4.4023 z"
       style="fill:#258cf8"
       id="path101" />
    <path
       d="m 1138.9699,352.19434 v 26.07714 h 5.4805 q 6.9404,0 10.1524,-3.14453 3.2343,-3.14453 3.2343,-9.92773 0,-6.73828 -3.2343,-9.86035 -3.212,-3.14453 -10.1524,-3.14453 z m -4.5371,-3.72852 h 9.3213 q 9.7481,0 14.3076,4.06543 4.5596,4.04297 4.5596,12.66797 0,8.66992 -4.582,12.73535 Q 1153.4572,382 1143.7541,382 h -9.3213 z"
       style="fill:#258cf8"
       id="path103" />
    <path
       d="m 1178.708,376.29492 h 4.7392 V 382 h -4.7392 z"
       style="fill:#258cf8"
       id="path105" />
    <path
       d="m 1213.3758,348.46582 h 4.5371 V 382 h -4.5371 z"
       style="fill:#7338ff"
       id="path107" />
    <path
       d="m 1235.3922,348.46582 h 6.7607 l 8.5576,22.82031 8.6026,-22.82031 h 6.7607 V 382 h -4.4248 v -29.44629 l -8.6474,23 h -4.5596 l -8.6475,-23 V 382 h -4.4023 z"
       style="fill:#7338ff"
       id="path109" />
    <path
       d="m 1288.0678,352.19434 v 12.60058 h 5.7051 q 3.1669,0 4.8964,-1.63965 1.7295,-1.63965 1.7295,-4.67187 0,-3.00977 -1.7295,-4.64942 -1.7295,-1.63964 -4.8964,-1.63964 z m -4.5371,-3.72852 h 10.2422 q 5.6377,0 8.5127,2.56055 2.8974,2.53808 2.8974,7.45703 0,4.96387 -2.8974,7.50195 -2.875,2.53809 -8.5127,2.53809 h -5.7051 V 382 h -4.5371 z"
       style="fill:#7338ff"
       id="path111" />
    <path
       d="m 1335.6223,366.27734 q 1.4599,0.49414 2.8301,2.11133 1.3925,1.61719 2.7851,4.44727 L 1345.842,382 h -4.874 l -4.2901,-8.60254 q -1.6621,-3.36914 -3.2343,-4.46973 -1.5498,-1.10058 -4.2451,-1.10058 h -4.9415 V 382 h -4.5371 v -33.53418 h 10.2422 q 5.75,0 8.5801,2.40332 2.8301,2.40332 2.8301,7.25488 0,3.167 -1.4824,5.25586 -1.46,2.08887 -4.2676,2.89746 z m -11.3653,-14.083 v 11.90429 h 5.7051 q 3.2793,0 4.9414,-1.50488 1.6846,-1.52734 1.6846,-4.46973 0,-2.94238 -1.6846,-4.4248 -1.6621,-1.50488 -4.9414,-1.50488 z"
       style="fill:#7338ff"
       id="path113" />
    <path
       d="m 1373.7431,351.54297 q -4.9414,0 -7.8613,3.68359 -2.8975,3.6836 -2.8975,10.04004 0,6.33399 2.8975,10.01758 2.9199,3.68359 7.8613,3.68359 4.9414,0 7.8164,-3.68359 2.8975,-3.68359 2.8975,-10.01758 0,-6.35644 -2.8975,-10.04004 -2.875,-3.68359 -7.8164,-3.68359 z m 0,-3.6836 q 7.0528,0 11.2754,4.73926 4.2227,4.7168 4.2227,12.66797 0,7.92871 -4.2227,12.66797 -4.2226,4.7168 -11.2754,4.7168 -7.0752,0 -11.3203,-4.7168 -4.2226,-4.7168 -4.2226,-12.66797 0,-7.95117 4.2226,-12.66797 4.2451,-4.73926 11.3203,-4.73926 z"
       style="fill:#7338ff"
       id="path115" />
    <path
       d="m 1412.6277,382 -12.8027,-33.53418 h 4.7392 l 10.6241,28.2334 10.6464,-28.2334 h 4.7168 L 1417.7713,382 Z"
       style="fill:#7338ff"
       id="path117" />
    <path
       d="m 1443.898,348.46582 h 21.2032 v 3.81836 h -16.666 v 9.92773 h 15.9697 v 3.81836 h -15.9697 v 12.15137 h 17.0703 V 382 h -21.6075 z"
       style="fill:#7338ff"
       id="path119" />
    <path
       d="m 1481.8167,376.29492 h 4.7393 V 382 h -4.7393 z"
       style="fill:#7338ff"
       id="path121" />
  </g>
</svg>
