<svg xmlns="http://www.w3.org/2000/svg" viewBox="0 0 716 716">
  <g fill="#101828">
    <path d="M509 317c8-30 0-63-24-87s-57-31-87-23c-22-22-55-32-87-23s-56 33-64 63c-30 8-55 31-63 64s2 65 23 87c-8 30 0 64 23 87s57 32 87 24c22 22 55 32 87 23s56-33 64-64c30-8 55-31 64-63s-2-66-23-88Zm-38-72c16 16 22 38 20 58l-75-43a11 11 0 0 0-11 0l-88 51v-33c0-3 2-6 4-7l67-38c27-15 61-11 83 12Zm-113 66 40 23v47l-40 24-41-24v-47l41-23Zm-93-41c0-31 20-58 51-67 22-6 44 0 61 13l-75 43a11 11 0 0 0-5 9v101l-29-16c-2-1-3-4-3-6v-77Zm-61 46c6-22 21-38 40-46v87c0 4 2 7 5 9l88 50-29 17c-2 1-5 1-7 0l-67-39c-27-16-39-47-30-78Zm41 155c-16-16-23-38-20-59l75 44c3 2 8 2 11 0l87-51v33c0 3-1 5-4 7l-66 38c-27 15-61 11-83-12Zm113 41c-22 0-42-8-58-21l75-43c3-2 5-6 5-10V347l29 16c2 1 3 4 3 6v77c0 31-21 58-52 66Zm93-66v-87c0-4-2-7-5-9l-88-51 29-16c2-1 5-1 7 0l67 38c27 16 39 48 31 78-6 22-22 39-41 47Z"/>
  </g>
</svg>
